<?xml version="1.0" encoding="utf-8" ?>
<svg baseProfile="tiny" version="1.2" height="16px" width="152px" style="background-color:#FFF" xmlns="http://www.w3.org/2000/svg" xmlns:ev="http://www.w3.org/2001/xml-events" xmlns:xlink="http://www.w3.org/1999/xlink">
<path d="M2,2.5 h1m1,0h1m1,0h1m1,0h1m1,0h1m1,0h1m1,0h1m1,0h1m1,0h1m1,0h1m1,0h1m1,0h1m1,0h1m1,0m-26,1h1m2,0h1m1,0h2m1,0h5m2,0h1m2,0h4m1,0h3m-26,1h1m2,0h3m4,0h2m1,0h1m3,0h1m4,0h2m2,0m-26,1h2m1,0h2m1,0h1m2,0h5m3,0h4m2,0h3m-26,1h7m1,0h1m1,0h1m4,0h1m5,0h3m2,0m-26,1h2m2,0h1m2,0h5m2,0h1m2,0h1m3,0h1m1,0h3m-26,1h4m4,0h1m1,0h2m2,0h1m1,0h3m2,0h1m1,0h2m1,0m-26,1h1m1,0h1m1,0h4m3,0h1m1,0h1m1,0h1m2,0h2m1,0h1m3,0h1m-26,1h1m2,0h2m1,0h2m2,0h2m1,0h4m1,0h1m1,0h2m4,0m-26,1h1m4,0h1m3,0h2m2,0h5m3,0h1m1,0h3m-26,1h5m1,0h2m2,0h1m1,0h5m2,0h1m3,0h1m2,0m-26,1h26m-26,1" stroke="#000" stroke-width="1"/>
<text x="0" y="0" font-family="Courier" font-size="14" fill="#000" transform="translate(32,11) rotate(0)">ppf.datamatrix</text>
</svg>
